<?xml version="1.0" encoding="UTF-8"?>
<svg id="Camada_2" data-name="Camada 2" xmlns="http://www.w3.org/2000/svg" xmlns:xlink="http://www.w3.org/1999/xlink" viewBox="0 0 1200 1200">
  <defs>
    <style>
      .cls-1, .cls-2, .cls-3, .cls-4 {
        fill: #004a8d;
      }

      .cls-5 {
        fill: #fdc180;
      }

      .cls-5, .cls-6, .cls-3, .cls-7 {
        stroke-width: 0px;
      }

      .cls-2 {
        font-size: 203px;
      }

      .cls-2, .cls-8, .cls-4 {
        font-family: Roboto-Bold, Roboto;
        font-weight: 700;
      }

      .cls-9 {
        fill: none;
        stroke: #004a8d;
        stroke-linecap: round;
        stroke-miterlimit: 10;
        stroke-width: 14px;
      }

      .cls-10 {
        clip-path: url(#clippath-2);
      }

      .cls-11 {
        clip-path: url(#clippath-6);
      }

      .cls-12, .cls-6, .cls-8 {
        fill: #f7941d;
      }

      .cls-13 {
        clip-path: url(#clippath-7);
      }

      .cls-14 {
        clip-path: url(#clippath-1);
      }

      .cls-15 {
        clip-path: url(#clippath-4);
      }

      .cls-16 {
        clip-path: url(#clippath);
      }

      .cls-17 {
        clip-path: url(#clippath-3);
      }

      .cls-18 {
        clip-path: url(#clippath-5);
      }

      .cls-7 {
        fill: #003c5e;
      }

      .cls-8, .cls-4 {
        font-size: 201px;
      }
    </style>
    <clipPath id="clippath">
      <path id="SVGID-2" data-name="SVGID" class="cls-6" d="M602.57,601.57l-94.43,16.55-47.65,54.53c-6.16,6.84-.09,17.57,8.94,15.8l68.72-13.45,64.43-73.43Z"/>
    </clipPath>
    <clipPath id="clippath-1">
      <path id="SVGID-4" data-name="SVGID" class="cls-6" d="M602.84,600.68l16.4,94.41,54.44,47.57c6.83,6.15,17.57.06,15.81-8.96l-13.34-68.7-73.32-64.32Z"/>
    </clipPath>
    <clipPath id="clippath-2">
      <path id="SVGID-6" data-name="SVGID" class="cls-6" d="M600.55,602.52l94.43-16.55,47.65-54.53c6.16-6.84.09-17.57-8.94-15.8l-68.72,13.45-64.43,73.43Z"/>
    </clipPath>
    <clipPath id="clippath-3">
      <path id="SVGID-8" data-name="SVGID" class="cls-6" d="M604.36,603.68l-16.4-94.41-54.44-47.57c-6.83-6.15-17.57-.06-15.81,8.96l13.34,68.7,73.32,64.32Z"/>
    </clipPath>
    <clipPath id="clippath-4">
      <path id="SVGID-10" data-name="SVGID" class="cls-3" d="M602.86,601.13l73.32,64.32,188.09,15.65c10.68.89,14.56-13.77,4.82-18.25l-169.66-80.6-96.57,18.88Z"/>
    </clipPath>
    <clipPath id="clippath-5">
      <path id="SVGID-12" data-name="SVGID" class="cls-3" d="M602.8,601.09l-64.43,73.43-15.94,188.14c-.91,10.68,13.74,14.54,18.24,4.79l80.86-169.81-18.73-96.55Z"/>
    </clipPath>
    <clipPath id="clippath-6">
      <path id="SVGID-14" data-name="SVGID" class="cls-3" d="M603.13,601.29l-73.32-64.32-188.09-15.65c-10.68-.89-14.56,13.77-4.82,18.25l169.66,80.6,96.57-18.88Z"/>
    </clipPath>
    <clipPath id="clippath-7">
      <path id="SVGID-16" data-name="SVGID" class="cls-3" d="M602.44,602.27l64.43-73.43,15.94-188.14c.91-10.68-13.74-14.54-18.24-4.79l-80.86,169.81,18.73,96.55Z"/>
    </clipPath>
  </defs>
  <text class="cls-8" transform="translate(172.62 553.05) rotate(-75.33)"><tspan x="0" y="0">S</tspan></text>
  <text class="cls-4" transform="translate(253.48 346.95) rotate(-46.33)"><tspan x="0" y="0">E</tspan></text>
  <text class="cls-4" transform="translate(414.09 210.52) rotate(-16.42)"><tspan x="0" y="0">N</tspan></text>
  <text class="cls-2" transform="translate(646.78 169.43) rotate(15.93)"><tspan x="0" y="0">A</tspan></text>
  <text class="cls-4" transform="translate(865.34 251.56) rotate(48.52)"><tspan x="0" y="0">M</tspan></text>
  <text class="cls-4" transform="translate(1007.83 446.65) rotate(77.76)"><tspan x="0" y="0">U</tspan></text>
  <text class="cls-8" transform="translate(1035 645.61) rotate(105.19)"><tspan x="0" y="0">N</tspan></text>
  <g>
    <path id="SVGID" class="cls-12" d="M602.57,601.57l-94.43,16.55-47.65,54.53c-6.16,6.84-.09,17.57,8.94,15.8l68.72-13.45,64.43-73.43Z"/>
    <g class="cls-16">
      <rect class="cls-5" x="453.21" y="640.47" width="176.78" height="48.67" transform="translate(-259.68 359.45) rotate(-29.97)"/>
    </g>
  </g>
  <g>
    <path id="SVGID-3" data-name="SVGID" class="cls-12" d="M602.84,600.68l16.4,94.41,54.44,47.57c6.83,6.15,17.57.06,15.81-8.96l-13.34-68.7-73.32-64.32Z"/>
    <g class="cls-14">
      <rect class="cls-5" x="641.6" y="573.28" width="48.73" height="176.55" transform="translate(-241.65 421.97) rotate(-30.02)"/>
    </g>
  </g>
  <g>
    <path id="SVGID-5" data-name="SVGID" class="cls-12" d="M600.55,602.52l94.43-16.55,47.65-54.53c6.16-6.84.09-17.57-8.94-15.8l-68.72,13.45-64.43,73.43Z"/>
    <g class="cls-10">
      <rect class="cls-5" x="573.13" y="514.96" width="176.78" height="48.67" transform="translate(-180.44 399.46) rotate(-29.76)"/>
    </g>
  </g>
  <g>
    <path id="SVGID-7" data-name="SVGID" class="cls-12" d="M604.36,603.68l-16.4-94.41-54.44-47.57c-6.83-6.15-17.57-.06-15.81,8.96l13.34,68.7,73.32,64.32Z"/>
    <g class="cls-17">
      <rect class="cls-5" x="516.87" y="454.52" width="48.73" height="176.55" transform="translate(-198.97 343.63) rotate(-30.02)"/>
    </g>
  </g>
  <g>
    <path id="SVGID-9" data-name="SVGID" class="cls-1" d="M602.86,601.13l73.32,64.32,188.09,15.65c10.68.89,14.56-13.77,4.82-18.25l-169.66-80.6-96.57,18.88Z"/>
    <g class="cls-15">
      <path class="cls-7" d="M602.48,600.62l80.86,100.45,228.87.13c6.5,0,11.46-6.45,13.39-13.7"/>
    </g>
  </g>
  <g>
    <path id="SVGID-11" data-name="SVGID" class="cls-1" d="M602.8,601.09l-64.43,73.43-15.94,188.14c-.91,10.68,13.74,14.54,18.24,4.79l80.86-169.81-18.73-96.55Z"/>
    <g class="cls-18">
      <path class="cls-7" d="M603.31,600.71l-100.56,81.03-.49,228.9c-.01,6.5,6.43,11.46,13.68,13.37"/>
    </g>
  </g>
  <g>
    <path id="SVGID-13" data-name="SVGID" class="cls-1" d="M603.13,601.29l-73.32-64.32-188.09-15.65c-10.68-.89-14.56,13.77-4.82,18.25l169.66,80.6,96.57-18.88Z"/>
    <g class="cls-11">
      <path class="cls-7" d="M603.51,601.8l-80.86-100.45-228.87-.13c-6.5,0-11.46,6.45-13.39,13.7"/>
    </g>
  </g>
  <g>
    <path id="SVGID-15" data-name="SVGID" class="cls-1" d="M602.44,602.27l64.43-73.43,15.94-188.14c.91-10.68-13.74-14.54-18.24-4.79l-80.86,169.81,18.73,96.55Z"/>
    <g class="cls-13">
      <path class="cls-7" d="M601.93,602.64l100.56-81.03.49-228.9c.01-6.5-6.43-11.46-13.68-13.37"/>
    </g>
  </g>
  <g>
    <path id="SVGID-17" data-name="SVGID" class="cls-1" d="M144.84,772.88c-.47-6.48-.52-13.02-.65-19.46l-.09-4.82c-.02-1.6.04-3.23.06-4.83l.18-9.6c.04-1.54-.02-3.07-.06-4.61-.03-1.54-.12-3.08-.26-4.61-.29-3.06-.81-6.09-1.54-9.06-.79-2.96-1.54-5.94-2.64-8.81-1.07-2.88-2.35-5.69-3.85-8.4-2.58-4.87-5-9.82-7.53-14.81-1.3-2.49-2.38-5.03-3.56-7.56l-3.48-7.65c-2.72-6.19-10.51-5.41-11.43,1.42l-1.12,8.27-.55,4.16c-.2,1.39-.37,2.78-.48,4.17l-1.58,16.81c-.35,6.28.14,12.72,1.56,18.94,1.6,6.18,3.93,12.18,7.19,17.6,7.46,12.14,15.13,23.92,23.41,35.14,2.38,3.24,6.65,1.67,6.43-2.28Z"/>
    <g>
      <path id="SVGID-18" data-name="SVGID" class="cls-1" d="M185.16,862.59c-5.18-3.92-10.26-7.99-15.47-12.1-5.03-4.2-10.06-8.51-15.13-12.89-4.73-4.32-9.95-7.84-15.46-10.48-5.45-2.66-11.04-4.49-16.78-5.25-5.1-.68-10.23-1.42-15.39-2.23-5.07-.84-10.17-1.74-15.29-2.71-3.08-.64-5.21,1.26-5.92,4.05-.35,1.39-.36,3.01.05,4.62.4,1.61,1.21,3.23,2.56,4.58,4.26,4.38,8.51,8.7,12.74,12.96,4.36,4.2,8.75,8.31,13.09,12.38,2.39,2.29,5.05,4.26,7.71,6,2.67,1.74,5.39,3.22,8.14,4.44,2.76,1.21,5.5,2.19,8.33,2.83,2.83.64,5.66,1.01,8.45,1.1,6.28.2,12.51.32,18.69.35h4.63s4.68-.06,4.68-.06c3.11-.06,6.21-.13,9.29-.23,3.55-.13,4.26-5.05,1.07-7.38Z"/>
      <path id="SVGID-19" data-name="SVGID" class="cls-1" d="M313.25,1001.15c-6.22-1.75-12.55-3.49-18.87-5.41l-9.4-3.07-4.74-1.57c-1.59-.52-3.18-1.04-4.72-1.64-6.01-2.22-12.19-3.51-18.29-3.87-5.99-.48-11.92-.03-17.51,1.41-4.98,1.27-10.06,2.56-15.08,3.69s-10.09,2.21-15.21,3.23c-3.1.57-4.36,3.12-3.97,5.97.4,2.84,2.42,6,5.86,7.57,5.61,2.46,11.18,4.86,16.71,7.22,1.37.6,2.77,1.16,4.19,1.71l4.22,1.64,8.38,3.23c1.56.59,3.11,1.13,4.67,1.59,1.58.44,3.16.8,4.72,1.1,3.13.6,6.22.95,9.23,1.04,3.01.09,5.95-.07,8.78-.5,2.84-.43,5.63-1.18,8.24-2.14,5.91-2.18,11.73-4.43,17.48-6.73,2.88-1.16,5.72-2.31,8.56-3.52,2.87-1.23,5.71-2.47,8.54-3.73,3.25-1.47,2.03-6.26-1.78-7.23Z"/>
      <path id="SVGID-20" data-name="SVGID" class="cls-1" d="M484.22,1080.98c-3.22.41-6.49.87-9.74,1.23l-9.78.89c-3.28.28-6.59.59-9.9.84l-9.93.48c-3.22.15-6.38.53-9.47,1.12-3.07.55-6.04,1.24-8.92,2.19-5.75,1.87-11.08,4.58-15.72,8.07-8.23,6.08-16.69,12-25.4,17.83-2.66,1.71-2.86,4.55-1.41,7.02,1.44,2.47,4.54,4.56,8.31,4.73,6.04.35,12.16.31,18.18.36l9,.02c2.99-.02,6.01-.17,8.99-.26,3.34-.12,6.59-.47,9.69-1.04,1.55-.29,3.07-.63,4.56-1.03,1.49-.42,2.95-.93,4.37-1.47,5.66-2.18,10.65-5.18,14.77-8.91,2.31-2.1,4.6-4.2,6.87-6.31,2.28-2.16,4.54-4.34,6.77-6.52,4.47-4.36,8.84-8.74,13.12-13.15,2.45-2.54-.46-6.62-4.36-6.1Z"/>
      <path id="SVGID-21" data-name="SVGID" class="cls-1" d="M672.62,1090.92l-8.56,4.79c-2.87,1.6-5.79,3-8.72,4.52l-8.86,4.47c-1.49.77-2.99,1.44-4.49,2.13l-4.53,2.07c-11.68,5.51-21.35,13.34-27.36,23.31-2.68,4.47-5.42,8.75-8.24,13.09-2.81,4.33-5.7,8.65-8.65,12.98-1.83,2.58-.95,5.29,1.32,7.04,2.27,1.75,5.92,2.55,9.48,1.31,1.43-.51,2.86-.98,4.29-1.53l4.26-1.65,8.46-3.31c2.8-1.12,5.59-2.18,8.36-3.36l8.25-3.62c3.06-1.35,5.94-2.88,8.61-4.57.67-.42,1.32-.85,1.96-1.3.64-.46,1.26-.94,1.88-1.42,1.22-.97,2.39-1.96,3.5-3,4.44-4.13,7.94-8.77,10.35-13.76l2.02-4.21,1.97-4.29c1.3-2.86,2.57-5.71,3.82-8.57,2.5-5.7,4.9-11.4,7.2-17.07,1.31-3.27-2.93-5.97-6.34-4.04Z"/>
      <path id="SVGID-22" data-name="SVGID" class="cls-1" d="M850.87,1029.02c-4.05,5.09-8.27,10.04-12.52,15.13-4.31,4.97-8.79,9.81-13.3,14.78-4.42,4.67-8.11,9.72-10.89,15.16-.7,1.35-1.34,2.73-1.92,4.11-.59,1.37-1.14,2.73-1.62,4.12-.96,2.77-1.69,5.58-2.15,8.42-1.66,10.11-3.5,20.47-5.75,30.55-.72,3.05,1.12,5.24,3.89,6.04,1.38.4,3,.46,4.63.09,1.61-.4,3.22-1.22,4.62-2.5l6.71-6.17,3.32-3.07c1.11-1.01,2.2-2.05,3.27-3.13,4.31-4.26,8.56-8.5,12.74-12.71,9.24-9.76,14.65-21.02,15.24-32.26.37-6.27.66-12.49.86-18.67.11-3.07.16-6.19.18-9.31.03-3.11.03-6.21.02-9.3-.03-3.55-4.94-4.4-7.34-1.27Z"/>
      <path id="SVGID-23" data-name="SVGID" class="cls-1" d="M992.8,904.68l-2.81,9.39c-.46,1.59-.99,3.13-1.51,4.67l-1.59,4.65-3.24,9.38c-.53,1.59-1.13,3.12-1.73,4.66l-1.8,4.64c-4.54,12.09-6.01,24.45-3.37,35.78,1.2,5.07,2.2,10.03,3.22,15.12,1,5.06,1.96,10.18,2.86,15.33.49,3.12,3.01,4.45,5.86,4.12,2.84-.32,6.02-2.3,7.7-5.68l2.01-4.08,1.9-4.16,3.75-8.27c1.23-2.76,2.49-5.46,3.65-8.24l3.39-8.35c1.25-3.1,2.25-6.21,2.99-9.28.38-1.52.66-3.07.86-4.63.21-1.54.35-3.08.42-4.59.31-6.05-.42-11.82-2.16-17.08l-1.49-4.43-1.58-4.45c-1.06-2.96-2.13-5.89-3.22-8.81-2.18-5.83-4.42-11.58-6.73-17.26-1.34-3.26-6.26-2.24-7.37,1.52Z"/>
    </g>
    <g>
      <path id="SVGID-24" data-name="SVGID" class="cls-1" d="M186.85,861.94c-.5-2.35-.81-4.81-1.21-7.19l-1.13-7.16c-.35-2.39-.78-4.71-1.05-7.12l-.85-7.15c-.27-2.29-.35-4.55-.25-6.77.05-1.11.15-2.2.29-3.27.17-1.09.39-2.17.65-3.22,1.04-4.22,2.78-8.12,5.16-11.54,2.13-3.05,4.28-6.07,6.44-9.05,2.18-2.99,4.45-5.99,6.69-8.92,1.33-1.79,3.4-2.12,5.13-1.44,1.74.67,3.07,2.38,3.17,4.63.24,7.3.34,14.84.99,22.25.32,4.17-.09,8.37-.96,12.34-.85,3.96-2.32,7.76-4.37,11.25-2.31,3.92-4.59,7.88-6.84,11.89-2.24,4.01-4.35,8-6.49,12.07-1.22,2.35-4.8,1.28-5.37-1.61Z"/>
      <path id="SVGID-25" data-name="SVGID" class="cls-1" d="M314.57,999.92l-7.56-12.42-1.85-3.07-1.77-3.15-3.48-6.28c-1.11-2.02-2.04-4.08-2.78-6.16-.76-2.06-1.22-4.27-1.54-6.4-.63-4.29-.49-8.55.44-12.61.83-3.63,1.66-7.2,2.58-10.81.93-3.62,1.88-7.22,2.86-10.79,1.14-4.3,7.13-4.36,8.86-.14l4.49,10.11,2.3,5.11,2.47,5c1.85,3.74,3.1,7.73,3.73,11.8.68,4,.78,8.05.18,12.05-.66,4.49-1.28,9.01-1.85,13.57-.28,2.27-.57,4.58-.82,6.85l-.68,6.81c-.24,2.63-3.98,3.01-5.58.54Z"/>
      <path id="SVGID-26" data-name="SVGID" class="cls-1" d="M484.98,1079.34c-7.97-5.47-15.56-11.61-23.04-17.41-3.56-2.98-6.51-6.4-8.73-10.09-1.11-1.84-2.04-3.76-2.78-5.72-.37-.98-.69-1.97-.96-2.97-.27-1.02-.48-2.06-.65-3.09-1.18-7.42-2.23-14.78-3.13-22.08-.59-4.38,4.97-6.79,8.18-3.54l3.93,3.94,4.05,3.78,8.24,7.61c1.54,1.46,3.02,2.87,4.35,4.45,1.33,1.56,2.54,3.22,3.61,4.96,2.14,3.48,3.74,7.27,4.69,11.23,2.16,8.81,4.58,17.54,7.19,26.41.76,2.55-2.55,4.25-4.96,2.54Z"/>
      <path id="SVGID-27" data-name="SVGID" class="cls-1" d="M672.71,1089.12l-7.06-1.71c-2.34-.57-4.67-1.12-7-1.82l-13.82-3.97c-2.2-.6-4.31-1.54-6.3-2.55-1.99-1.03-3.85-2.2-5.57-3.5-3.44-2.6-6.31-5.72-8.48-9.25-3.88-6.43-7.6-12.89-11.17-19.34-2.18-3.85,2.06-8.15,6.24-6.32,3.39,1.53,6.81,2.8,10.27,4.14l10.48,4c7.86,2.65,14.71,7.79,19.44,14.33,5.31,7.29,10.84,14.56,16.6,21.79,1.67,2.08-.76,4.89-3.63,4.2Z"/>
      <path id="SVGID-28" data-name="SVGID" class="cls-1" d="M850.27,1027.31c-2.37.43-4.82.69-7.22,1.02l-7.19.93c-2.39.3-4.75.62-7.13.88l-7.17.64c-4.61.39-9.05.1-13.23-1.03-4.2-1.16-8.05-3.02-11.41-5.5-3-2.22-5.96-4.45-8.89-6.7l-4.36-3.38-4.35-3.5c-3.5-2.8-1.11-8.21,3.39-8.25h11.11c1.88.01,3.73-.06,5.58-.14l5.59-.23c2.09-.09,4.18-.02,6.25.21,2.07.24,4.11.62,6.06,1.08,3.93.96,7.7,2.53,11.13,4.68,3.85,2.42,7.76,4.81,11.71,7.17,3.94,2.34,7.88,4.56,11.89,6.81,2.32,1.28,1.15,4.83-1.75,5.32Z"/>
      <path id="SVGID-29" data-name="SVGID" class="cls-1" d="M991.61,903.33l-6.26,3.69c-2.08,1.22-4.12,2.45-6.28,3.58l-12.68,6.78c-2,1.1-4.16,1.91-6.29,2.56-2.14.65-4.29,1.11-6.43,1.38-4.28.54-8.51.3-12.53-.72-7.26-1.91-14.44-3.94-21.49-6.07-4.24-1.24-4.2-7.28.07-8.89,3.5-1.27,6.84-2.74,10.25-4.19,3.4-1.46,6.85-2.92,10.3-4.44,7.48-3.58,15.99-4.65,23.93-3.27,8.89,1.53,17.92,2.89,27.1,4.07,2.65.33,2.86,4.03.32,5.54Z"/>
    </g>
    <path class="cls-9" d="M992.42,905.59c-29.15,37.55-63.81,70.81-102.49,98.45-38.67,27.65-81.35,49.7-126.3,65.2-44.94,15.52-92.13,24.49-139.63,26.46-47.5,2.05-95.27-3.12-141.35-14.84-46.1-11.68-90.51-29.96-131.34-54.31-40.84-24.32-78.08-54.66-110.21-89.7-32.14-35.03-59.18-74.73-80.03-117.46-20.86-42.72-35.53-88.47-43.31-135.37"/>
    <g>
      <g>
        <path id="SVGID-30" data-name="SVGID" class="cls-1" d="M235.41,940.48l-8.6,1.96c-2.89.65-5.78,1.26-8.63,1.82-5.55,1.11-11.77-.01-17.64-3.18-2.65-1.38-5.15-2.92-7.74-4.4l-7.73-4.54c-1.56-.9-2.36-2.47-2.38-3.85.01-1.4.79-2.6,2.32-2.74,4.95-.48,9.93-1.07,14.83-1.68,2.75-.34,5.6-.2,8.43.4,1.42.3,2.83.72,4.22,1.24.7.26,1.39.56,2.08.87.7.3,1.4.63,2.09.99l9.27,4.77c3.07,1.57,6.11,3.15,9.27,4.57,1.8.84,1.94,3.34.22,3.75Z"/>
        <path id="SVGID-31" data-name="SVGID" class="cls-1" d="M245.24,931.51l2.87-8.18c.96-2.7,1.96-5.4,3.01-8.13,2-5.24,2.18-11.18.5-16.81-.79-2.49-1.4-5.1-2.08-7.63l-1.96-7.6c-.36-1.52-1.56-2.44-2.82-2.66-1.23-.24-2.54.24-3.16,1.6-1.97,4.38-3.83,8.76-5.69,13.21-1.04,2.49-1.62,5.19-1.73,7.99-.06,1.4,0,2.82.17,4.26.09.72.2,1.44.35,2.16.16.71.36,1.41.58,2.12l3.04,9.57c1.03,3.21,2.05,6.46,3.23,9.6.66,1.83,3.14,2.17,3.7.5Z"/>
      </g>
      <g>
        <path id="SVGID-32" data-name="SVGID" class="cls-1" d="M389.17,1054.33l-3.6,2.56-3.6,2.47-7.29,4.9c-4.72,3.12-10.96,4.55-17.56,3.78-5.85-.77-11.76-1.57-17.72-2.41-3.57-.51-5.24-4.75-2.51-6.16l6.54-3.47c2.18-1.18,4.36-2.41,6.52-3.63,4.85-2.73,10.79-3.83,16.91-3.12,1.71.22,3.46.34,5.2.49l5.19.41,10.29.77c1.96.13,3.07,2.34,1.62,3.39Z"/>
        <path id="SVGID-33" data-name="SVGID" class="cls-1" d="M394.87,1042.31l-.24-4.32-.18-4.37-.27-8.7c-.13-5.61-2.26-11.07-5.91-15.7l-9.5-12.54c-1.8-2.55-5.77-1.79-5.9,1.21l-.23,7.25c-.05,2.4-.07,4.78-.08,7.19-.03,5.37,1.96,10.83,5.66,15.52,1.03,1.34,2.11,2.59,3.19,3.86l3.25,3.83,6.6,7.71c1.29,1.48,3.73.8,3.62-.93Z"/>
      </g>
      <g>
        <path id="SVGID-34" data-name="SVGID" class="cls-1" d="M574.54,1101.85l-4.8,7.42c-1.62,2.48-3.26,4.85-4.92,7.28-3.2,4.67-8.45,8.21-14.87,10.04-2.87.87-5.73,1.5-8.62,2.23l-8.71,2.13c-3.5.89-6.66-2.28-4.65-4.67,3.22-3.84,6.38-7.69,9.47-11.56,1.73-2.16,3.88-4.04,6.32-5.58,1.22-.77,2.53-1.46,3.89-2.05.68-.3,1.38-.57,2.1-.82.72-.27,1.45-.52,2.19-.75l9.98-3.06,4.93-1.53,2.45-.77,2.45-.85c1.87-.66,3.73,1.02,2.77,2.52Z"/>
        <path id="SVGID-35" data-name="SVGID" class="cls-1" d="M575.32,1088.57l-3.65-7.84c-1.19-2.6-2.36-5.32-3.5-7.97-2.22-5.15-6.23-9.52-11.36-12.38-2.3-1.23-4.56-2.69-6.81-4.03l-6.7-4.09c-2.63-1.67-6.04.66-5.03,3.43,1.65,4.46,3.36,8.94,5.13,13.42.99,2.51,2.46,4.85,4.32,6.94.93,1.05,1.97,2.03,3.09,2.94.56.46,1.15.89,1.75,1.31.61.39,1.24.76,1.89,1.11l8.85,4.73,4.48,2.37,2.25,1.19,2.27,1.1c1.75.84,3.76-.65,3.01-2.23Z"/>
      </g>
      <g>
        <path id="SVGID-36" data-name="SVGID" class="cls-1" d="M764.11,1076.09c-1.06,5.74-2.21,11.5-3.43,17.29-1.16,5.66-4.71,10.82-9.97,14.87l-7.1,5.43c-2.4,1.76-4.83,3.46-7.27,5.19-2.91,2.11-7.04.33-6.08-2.62,1.53-4.75,3-9.48,4.41-14.2.79-2.65,2.07-5.15,3.75-7.52,1.67-2.41,3.75-4.62,6.17-6.55l8.11-6.48c2.66-2.22,5.27-4.51,7.87-6.75,1.49-1.3,3.85-.41,3.54,1.33Z"/>
        <path id="SVGID-37" data-name="SVGID" class="cls-1" d="M759.81,1063.5c-4.28-3.95-8.48-7.92-12.6-11.92-3.96-3.8-9.36-6.44-15.21-7.21l-7.8-1.04c-2.6-.41-5.2-.88-7.77-1.32-3.07-.59-5.36,2.83-3.37,5.03,3.22,3.53,6.5,7.06,9.85,10.56,1.87,1.95,4.12,3.62,6.64,4.83,2.5,1.18,5.28,1.96,8.23,2.31l10.02,1.15c3.34.3,6.68.53,10.06.79,1.95.14,3.25-1.97,1.95-3.17Z"/>
      </g>
      <g>
        <path id="SVGID-38" data-name="SVGID" class="cls-1" d="M930.1,980.91c.59,2.87,1.2,5.79,1.73,8.65l1.54,8.64c.97,5.59-.3,11.8-3.61,17.6-3.07,5.03-6.19,10.1-9.36,15.21-.93,1.55-2.53,2.3-3.94,2.24-1.4-.05-2.58-.86-2.68-2.39-.31-4.9-.78-9.92-1.26-14.84-.54-5.53.86-11.4,3.97-16.7,3.37-6.15,6.67-12.21,9.85-18.27.88-1.78,3.38-1.87,3.74-.13Z"/>
        <path id="SVGID-39" data-name="SVGID" class="cls-1" d="M921.4,970.84c-2.72-1.02-5.39-2.01-8.09-3.09l-8.08-3.27c-5.18-2.13-11.09-2.45-16.74-.9l-15.35,3.61c-1.52.34-2.48,1.5-2.77,2.71-.27,1.23.17,2.55,1.52,3.21,4.37,2.14,8.67,4.1,13.07,6.07,4.91,2.2,10.72,2.58,16.51,1.1,6.37-1.85,12.84-3.73,19.34-5.74,1.84-.62,2.24-3.09.59-3.7Z"/>
      </g>
    </g>
  </g>
</svg>